<svg width="38" height="33" viewBox="0 0 38 33" fill="none" xmlns="http://www.w3.org/2000/svg">
<path d="M18.9334 32.0615H9.96262L7.33862 27.5105L5.2312 23.8615L7.33862 20.2043" stroke="white" stroke-width="0.8" stroke-miterlimit="10"/>
<path d="M7.3386 20.2044H3.1074L1 16.5308L3.9848 11.3566L5.21481 9.23283L7.3468 5.55103L9.4542 1.8938L9.9626 1H18.9334" stroke="white" stroke-width="0.8" stroke-miterlimit="10"/>
<path d="M18.9335 28.4044H12.0783L9.45432 23.8616L7.33872 20.2044L9.47892 16.5308H5.22314L8.23252 11.3074L9.45432 9.19996L11.5617 5.55096L12.0783 4.65717H18.9335" stroke="white" stroke-width="0.8" stroke-miterlimit="10"/>
<path d="M18.9334 8.33899H14.202L9.47876 16.5308L14.202 24.7226H18.9334" stroke="white" stroke-width="0.8" stroke-miterlimit="10"/>
<path d="M5.22302 16.5308L3.10742 20.2044" stroke="white" stroke-width="0.8" stroke-miterlimit="10"/>
<path d="M34.7594 20.2044L32.6438 16.5308" stroke="white" stroke-width="0.8" stroke-miterlimit="10"/>
<path d="M18.9333 32.0615H27.9041L30.5281 27.5105L32.6355 23.8615L30.5281 20.2043" stroke="white" stroke-width="0.8" stroke-miterlimit="10"/>
<path d="M30.5282 20.2044L34.7676 20.1716L36.8668 16.5308L33.882 11.3566L32.652 9.23283L30.52 5.55103L28.4126 1.8938L27.9041 1H18.9333" stroke="white" stroke-width="0.8" stroke-miterlimit="10"/>
<path d="M18.9333 28.4044H25.7886L28.4126 23.8616L30.5281 20.2044L28.3879 16.5308H32.6438L29.6343 11.3074L28.4126 9.19996L26.3052 5.55096L25.7886 4.65717H18.9333" stroke="white" stroke-width="0.8" stroke-miterlimit="10"/>
<path d="M18.9333 8.33899H23.6647L28.3879 16.5308L23.6647 24.7226H18.9333" stroke="white" stroke-width="0.8" stroke-miterlimit="10"/>
<path d="M14.2019 8.33897L12.0781 4.65717" stroke="white" stroke-width="0.8" stroke-miterlimit="10"/>
<path d="M23.6648 8.33897L25.7886 4.65717" stroke="white" stroke-width="0.8" stroke-miterlimit="10"/>
</svg>
